<mxfile host="drawio-plugin" modified="2023-03-13T18:15:48.230Z" agent="5.0 (Windows NT 6.2; Win64; x64) AppleWebKit/537.36 (KHTML, like Gecko) Chrome/104.0.5112.102 Safari/537.36" etag="GphiRVyVdfFOotVS7lZQ" version="20.5.3" type="embed"><diagram name="Page-1" id="U7rYXjhxg68x-dvbTGNp"><mxGraphModel dx="947" dy="713" grid="1" gridSize="10" guides="1" tooltips="1" connect="1" arrows="1" fold="1" page="1" pageScale="1" pageWidth="850" pageHeight="1100" math="0" shadow="0"><root><mxCell id="0"/><mxCell id="1" parent="0"/><mxCell id="3J3kCRGU0De-33KW4w7Z-11" style="edgeStyle=orthogonalEdgeStyle;rounded=0;orthogonalLoop=1;jettySize=auto;html=1;exitX=0;exitY=0.5;exitDx=0;exitDy=0;entryX=0.5;entryY=0;entryDx=0;entryDy=0;fillColor=#e51400;strokeColor=#B20000;" parent="1" source="3J3kCRGU0De-33KW4w7Z-1" target="3J3kCRGU0De-33KW4w7Z-3" edge="1"><mxGeometry relative="1" as="geometry"/></mxCell><mxCell id="3J3kCRGU0De-33KW4w7Z-15" style="edgeStyle=orthogonalEdgeStyle;rounded=0;orthogonalLoop=1;jettySize=auto;html=1;exitX=1;exitY=0.5;exitDx=0;exitDy=0;entryX=0.5;entryY=0;entryDx=0;entryDy=0;" parent="1" source="3J3kCRGU0De-33KW4w7Z-1" target="3J3kCRGU0De-33KW4w7Z-2" edge="1"><mxGeometry relative="1" as="geometry"/></mxCell><mxCell id="3J3kCRGU0De-33KW4w7Z-1" value="gateway" style="rounded=0;whiteSpace=wrap;html=1;fillColor=#f8cecc;strokeColor=#b85450;" parent="1" vertex="1"><mxGeometry x="290" y="50" width="120" height="60" as="geometry"/></mxCell><mxCell id="3J3kCRGU0De-33KW4w7Z-10" style="edgeStyle=orthogonalEdgeStyle;rounded=0;orthogonalLoop=1;jettySize=auto;html=1;exitX=0.5;exitY=1;exitDx=0;exitDy=0;entryX=0.5;entryY=0;entryDx=0;entryDy=0;entryPerimeter=0;" parent="1" source="3J3kCRGU0De-33KW4w7Z-2" target="3J3kCRGU0De-33KW4w7Z-7" edge="1"><mxGeometry relative="1" as="geometry"/></mxCell><mxCell id="3J3kCRGU0De-33KW4w7Z-2" value="Games Server" style="rounded=0;whiteSpace=wrap;html=1;fillColor=#dae8fc;strokeColor=#6c8ebf;" parent="1" vertex="1"><mxGeometry x="480" y="250" width="120" height="60" as="geometry"/></mxCell><mxCell id="3J3kCRGU0De-33KW4w7Z-9" style="edgeStyle=orthogonalEdgeStyle;rounded=0;orthogonalLoop=1;jettySize=auto;html=1;exitX=0.5;exitY=1;exitDx=0;exitDy=0;entryX=0.5;entryY=0;entryDx=0;entryDy=0;entryPerimeter=0;" parent="1" source="3J3kCRGU0De-33KW4w7Z-3" target="3J3kCRGU0De-33KW4w7Z-5" edge="1"><mxGeometry relative="1" as="geometry"/></mxCell><mxCell id="3J3kCRGU0De-33KW4w7Z-13" style="edgeStyle=orthogonalEdgeStyle;rounded=0;orthogonalLoop=1;jettySize=auto;html=1;exitX=1;exitY=0.5;exitDx=0;exitDy=0;entryX=0;entryY=0.5;entryDx=0;entryDy=0;dashed=1;fillColor=#e51400;strokeColor=#B20000;" parent="1" source="3J3kCRGU0De-33KW4w7Z-3" target="3J3kCRGU0De-33KW4w7Z-2" edge="1"><mxGeometry relative="1" as="geometry"/></mxCell><mxCell id="3J3kCRGU0De-33KW4w7Z-3" value="Cache server" style="rounded=0;whiteSpace=wrap;html=1;fillColor=#d5e8d4;strokeColor=#82b366;" parent="1" vertex="1"><mxGeometry x="120" y="250" width="120" height="60" as="geometry"/></mxCell><mxCell id="3J3kCRGU0De-33KW4w7Z-5" value="Redis" style="shape=cylinder3;whiteSpace=wrap;html=1;boundedLbl=1;backgroundOutline=1;size=15;" parent="1" vertex="1"><mxGeometry x="150" y="400" width="60" height="80" as="geometry"/></mxCell><mxCell id="3J3kCRGU0De-33KW4w7Z-7" value="MongoDB" style="shape=cylinder3;whiteSpace=wrap;html=1;boundedLbl=1;backgroundOutline=1;size=15;" parent="1" vertex="1"><mxGeometry x="510" y="400" width="60" height="80" as="geometry"/></mxCell><mxCell id="3J3kCRGU0De-33KW4w7Z-12" value="GET /games" style="text;html=1;align=center;verticalAlign=middle;resizable=0;points=[];autosize=1;strokeColor=none;fillColor=none;" parent="1" vertex="1"><mxGeometry x="85" y="85" width="90" height="30" as="geometry"/></mxCell><mxCell id="3J3kCRGU0De-33KW4w7Z-14" value="Synchronize Data&lt;br&gt;GET /games" style="text;html=1;align=center;verticalAlign=middle;resizable=0;points=[];autosize=1;strokeColor=none;fillColor=none;" parent="1" vertex="1"><mxGeometry x="290" y="240" width="120" height="40" as="geometry"/></mxCell><mxCell id="3J3kCRGU0De-33KW4w7Z-16" value="&lt;br&gt;GET /games&lt;br&gt;DELETE /games?name=%game_name%&lt;br&gt;PUT /games" style="text;html=1;align=center;verticalAlign=middle;resizable=0;points=[];autosize=1;strokeColor=none;fillColor=none;" parent="1" vertex="1"><mxGeometry x="530" y="65" width="240" height="70" as="geometry"/></mxCell><mxCell id="3J3kCRGU0De-33KW4w7Z-17" value="Flows through Gateway" style="text;html=1;align=center;verticalAlign=middle;resizable=0;points=[];autosize=1;strokeColor=none;fillColor=none;" parent="1" vertex="1"><mxGeometry x="275" y="275" width="150" height="30" as="geometry"/></mxCell></root></mxGraphModel></diagram></mxfile>